<svg width="27" height="26" viewBox="0 0 27 26" fill="none" xmlns="http://www.w3.org/2000/svg">
<g clip-path="url(#clip0_453_989)">
<path d="M24.7505 9.93604L20.5482 5.73379C20.3439 5.53645 20.0703 5.42726 19.7862 5.42973C19.5022 5.4322 19.2305 5.54613 19.0296 5.74699C18.8287 5.94785 18.7148 6.21956 18.7123 6.50361C18.7099 6.78765 18.8191 7.06131 19.0164 7.26563L23.2187 11.4679C23.3435 11.5952 23.4526 11.737 23.5437 11.8904C23.5274 11.8904 23.5144 11.8817 23.4982 11.8817L6.50716 11.9164C6.21984 11.9164 5.94429 12.0305 5.74113 12.2337C5.53796 12.4368 5.42383 12.7124 5.42383 12.9997C5.42383 13.287 5.53796 13.5626 5.74113 13.7657C5.94429 13.9689 6.21984 14.083 6.50716 14.083L23.4917 14.0484C23.522 14.0484 23.5469 14.0332 23.5762 14.031C23.4801 14.2143 23.3582 14.3828 23.2143 14.5315L19.0121 18.7338C18.9086 18.8337 18.8261 18.9533 18.7693 19.0854C18.7125 19.2176 18.6826 19.3598 18.6814 19.5036C18.6801 19.6475 18.7076 19.7901 18.762 19.9232C18.8165 20.0564 18.8969 20.1773 18.9987 20.2791C19.1004 20.3808 19.2213 20.4612 19.3545 20.5157C19.4876 20.5702 19.6303 20.5976 19.7741 20.5963C19.9179 20.5951 20.0601 20.5652 20.1923 20.5084C20.3244 20.4516 20.444 20.3691 20.5439 20.2656L24.7462 16.0634C25.5585 15.2508 26.0149 14.1488 26.0149 12.9997C26.0149 11.8507 25.5585 10.7487 24.7462 9.93604H24.7505Z" fill="#333333"/>
<path d="M7.60286 23.8333H5.4362C4.57424 23.8333 3.74759 23.4909 3.1381 22.8814C2.52861 22.2719 2.1862 21.4453 2.1862 20.5833V5.41667C2.1862 4.55471 2.52861 3.72806 3.1381 3.11857C3.74759 2.50908 4.57424 2.16667 5.4362 2.16667H7.60286C7.89018 2.16667 8.16573 2.05253 8.3689 1.84937C8.57206 1.6462 8.6862 1.37065 8.6862 1.08333C8.6862 0.796016 8.57206 0.520465 8.3689 0.317301C8.16573 0.114137 7.89018 0 7.60286 0L5.4362 0C4.00014 0.00172018 2.62339 0.572955 1.60794 1.5884C0.592487 2.60385 0.0212514 3.98061 0.0195313 5.41667L0.0195312 20.5833C0.0212514 22.0194 0.592487 23.3961 1.60794 24.4116C2.62339 25.427 4.00014 25.9983 5.4362 26H7.60286C7.89018 26 8.16573 25.8859 8.3689 25.6827C8.57206 25.4795 8.6862 25.204 8.6862 24.9167C8.6862 24.6293 8.57206 24.3538 8.3689 24.1506C8.16573 23.9475 7.89018 23.8333 7.60286 23.8333Z" fill="#333333"/>
</g>
<defs>
<clipPath id="clip0_453_989">
<rect width="26" height="26" fill="white" transform="translate(0.0195312)"/>
</clipPath>
</defs>
</svg>
