<svg width="27" height="26" viewBox="0 0 27 26" fill="none" xmlns="http://www.w3.org/2000/svg">
<g clip-path="url(#clip0_453_992)">
<path d="M13.0195 13C14.3051 13 15.5618 12.6188 16.6307 11.9046C17.6997 11.1903 18.5328 10.1752 19.0247 8.98745C19.5167 7.79973 19.6454 6.49279 19.3946 5.23192C19.1438 3.97104 18.5248 2.81285 17.6157 1.90381C16.7067 0.994768 15.5485 0.375703 14.2876 0.124899C13.0267 -0.125905 11.7198 0.00281636 10.5321 0.494786C9.34437 0.986756 8.32921 1.81988 7.61498 2.8888C6.90075 3.95772 6.51953 5.21442 6.51953 6.5C6.52125 8.22338 7.20662 9.87568 8.42524 11.0943C9.64385 12.3129 11.2962 12.9983 13.0195 13ZM13.0195 2.16667C13.8766 2.16667 14.7144 2.42082 15.427 2.89697C16.1396 3.37312 16.695 4.0499 17.023 4.84171C17.351 5.63352 17.4368 6.50481 17.2696 7.34539C17.1024 8.18598 16.6897 8.95811 16.0837 9.56413C15.4776 10.1702 14.7055 10.5829 13.8649 10.7501C13.0243 10.9173 12.153 10.8315 11.3612 10.5035C10.5694 10.1755 9.89265 9.62009 9.4165 8.90747C8.94034 8.19486 8.6862 7.35706 8.6862 6.5C8.6862 5.35073 9.14274 4.24853 9.9554 3.43587C10.7681 2.62322 11.8703 2.16667 13.0195 2.16667Z" fill="#333333"/>
<path d="M13.0195 15.167C10.4346 15.1699 7.95627 16.198 6.12841 18.0259C4.30055 19.8537 3.2724 22.332 3.26953 24.917C3.26953 25.2043 3.38367 25.4799 3.58683 25.683C3.79 25.8862 4.06555 26.0003 4.35286 26.0003C4.64018 26.0003 4.91573 25.8862 5.1189 25.683C5.32206 25.4799 5.4362 25.2043 5.4362 24.917C5.4362 22.9058 6.23515 20.9769 7.6573 19.5548C9.07946 18.1326 11.0083 17.3337 13.0195 17.3337C15.0308 17.3337 16.9596 18.1326 18.3818 19.5548C19.8039 20.9769 20.6029 22.9058 20.6029 24.917C20.6029 25.2043 20.717 25.4799 20.9202 25.683C21.1233 25.8862 21.3989 26.0003 21.6862 26.0003C21.9735 26.0003 22.2491 25.8862 22.4522 25.683C22.6554 25.4799 22.7695 25.2043 22.7695 24.917C22.7667 22.332 21.7385 19.8537 19.9107 18.0259C18.0828 16.198 15.6045 15.1699 13.0195 15.167Z" fill="#333333"/>
</g>
<defs>
<clipPath id="clip0_453_992">
<rect width="26" height="26" fill="white" transform="translate(0.0195312)"/>
</clipPath>
</defs>
</svg>
