<svg width="13" height="13" viewBox="0 0 13 13" fill="none" xmlns="http://www.w3.org/2000/svg">
<g clip-path="url(#clip0_447_2763)">
<path d="M7.64881 6.49998L12.7619 1.38741C13.0793 1.07001 13.0793 0.555416 12.7619 0.238046C12.4445 -0.0793488 11.9299 -0.0793488 11.6126 0.238046L6.49998 5.35115L1.38741 0.238046C1.07001 -0.0793488 0.555416 -0.0793488 0.238046 0.238046C-0.0793234 0.555442 -0.0793488 1.07004 0.238046 1.38741L5.35115 6.49998L0.238046 11.6126C-0.0793488 11.93 -0.0793488 12.4446 0.238046 12.7619C0.555442 13.0793 1.07004 13.0793 1.38741 12.7619L6.49998 7.64881L11.6126 12.7619C11.9299 13.0793 12.4445 13.0793 12.7619 12.7619C13.0793 12.4445 13.0793 11.9299 12.7619 11.6126L7.64881 6.49998Z" fill="#333333"/>
</g>
<defs>
<clipPath id="clip0_447_2763">
<rect width="13" height="13" fill="white"/>
</clipPath>
</defs>
</svg>
