<svg width="18" height="18" viewBox="0 0 18 18" fill="none" xmlns="http://www.w3.org/2000/svg">
<g clip-path="url(#clip0_447_2782)">
<path d="M17.7662 16.7066L13.2931 12.2335C14.5121 10.7427 15.1114 8.84035 14.9671 6.92003C14.8229 4.99971 13.946 3.20831 12.518 1.91637C11.0899 0.624419 9.21992 -0.0692243 7.29479 -0.02109C5.36966 0.0270443 3.53667 0.813274 2.17497 2.17497C0.813274 3.53667 0.0270443 5.36966 -0.02109 7.29479C-0.0692243 9.21992 0.624419 11.0899 1.91637 12.518C3.20831 13.946 4.99971 14.8229 6.92003 14.9671C8.84035 15.1114 10.7427 14.5121 12.2335 13.2931L16.7066 17.7662C16.8479 17.9027 17.0372 17.9782 17.2337 17.9765C17.4302 17.9748 17.6181 17.896 17.7571 17.7571C17.896 17.6181 17.9748 17.4302 17.9765 17.2337C17.9782 17.0372 17.9027 16.8479 17.7662 16.7066ZM7.49439 13.4895C6.30868 13.4895 5.14959 13.1379 4.16371 12.4791C3.17782 11.8204 2.40942 10.8841 1.95567 9.78861C1.50191 8.69315 1.38319 7.48774 1.61451 6.32481C1.84583 5.16188 2.41681 4.09366 3.25523 3.25523C4.09366 2.41681 5.16188 1.84583 6.32481 1.61451C7.48774 1.38319 8.69315 1.50191 9.78861 1.95567C10.8841 2.40942 11.8204 3.17782 12.4791 4.16371C13.1379 5.14959 13.4895 6.30868 13.4895 7.49439C13.4877 9.08384 12.8555 10.6077 11.7316 11.7316C10.6077 12.8555 9.08384 13.4877 7.49439 13.4895Z" fill="#4F4F4F"/>
</g>
<defs>
<clipPath id="clip0_447_2782">
<rect width="18" height="18" fill="white"/>
</clipPath>
</defs>
</svg>
