<svg width="33" height="33" viewBox="0 0 33 33" fill="none" xmlns="http://www.w3.org/2000/svg">
<path d="M6.01979 19.063C5.22148 19.063 4.45587 18.7459 3.89138 18.1814C3.32689 17.6169 3.00977 16.8513 3.00977 16.053C3.00977 15.2547 3.32689 14.4891 3.89138 13.9246C4.45587 13.3601 5.22148 13.043 6.01979 13.043C6.8181 13.043 7.58372 13.3601 8.14821 13.9246C8.7127 14.4891 9.02982 15.2547 9.02982 16.053C9.02982 16.8513 8.7127 17.6169 8.14821 18.1814C7.58372 18.7459 6.8181 19.063 6.01979 19.063ZM16.0532 19.063C15.2549 19.063 14.4893 18.7459 13.9248 18.1814C13.3603 17.6169 13.0432 16.8513 13.0432 16.053C13.0432 15.2547 13.3603 14.4891 13.9248 13.9246C14.4893 13.3601 15.2549 13.043 16.0532 13.043C16.8515 13.043 17.6171 13.3601 18.1816 13.9246C18.7461 14.4891 19.0632 15.2547 19.0632 16.053C19.0632 16.8513 18.7461 17.6169 18.1816 18.1814C17.6171 18.7459 16.8515 19.063 16.0532 19.063ZM26.0866 19.063C25.2883 19.063 24.5227 18.7459 23.9582 18.1814C23.3937 17.6169 23.0766 16.8513 23.0766 16.053C23.0766 15.2547 23.3937 14.4891 23.9582 13.9246C24.5227 13.3601 25.2883 13.043 26.0866 13.043C26.885 13.043 27.6506 13.3601 28.2151 13.9246C28.7796 14.4891 29.0967 15.2547 29.0967 16.053C29.0967 16.8513 28.7796 17.6169 28.2151 18.1814C27.6506 18.7459 26.885 19.063 26.0866 19.063Z" fill="#191919"/>
</svg>
