<svg width="230" height="55" viewBox="0 0 230 55" fill="none" xmlns="http://www.w3.org/2000/svg">
<path d="M88.728 16.88V38H84.728V26.992L84.952 20.816H84.888L79.032 38H75.416L69.592 20.816H69.528L69.752 26.992V38H65.752V16.88H72.152L75.96 28.4L77.304 33.168H77.368L78.744 28.432L82.52 16.88H88.728ZM100.913 21.68C102.534 21.68 103.953 22.0107 105.169 22.672C106.406 23.3333 107.366 24.2827 108.049 25.52C108.753 26.7573 109.105 28.2507 109.105 30C109.105 31.728 108.753 33.2213 108.049 34.48C107.366 35.7173 106.406 36.6667 105.169 37.328C103.953 37.9893 102.534 38.32 100.913 38.32C99.3125 38.32 97.8938 37.9893 96.6565 37.328C95.4192 36.6667 94.4485 35.7173 93.7445 34.48C93.0618 33.2213 92.7205 31.728 92.7205 30C92.7205 28.2507 93.0618 26.7573 93.7445 25.52C94.4485 24.2827 95.4192 23.3333 96.6565 22.672C97.8938 22.0107 99.3125 21.68 100.913 21.68ZM100.913 24.944C100.102 24.944 99.4085 25.136 98.8325 25.52C98.2778 25.8827 97.8512 26.4373 97.5525 27.184C97.2538 27.9307 97.1045 28.8693 97.1045 30C97.1045 31.1307 97.2538 32.0693 97.5525 32.816C97.8512 33.5627 98.2778 34.128 98.8325 34.512C99.4085 34.8747 100.102 35.056 100.913 35.056C101.702 35.056 102.374 34.8747 102.929 34.512C103.505 34.128 103.942 33.5627 104.241 32.816C104.539 32.0693 104.689 31.1307 104.689 30C104.689 28.8693 104.539 27.9307 104.241 27.184C103.942 26.4373 103.505 25.8827 102.929 25.52C102.374 25.136 101.702 24.944 100.913 24.944ZM118.821 38.32C117.498 38.32 116.314 37.9893 115.269 37.328C114.245 36.6667 113.434 35.7173 112.837 34.48C112.261 33.2427 111.973 31.76 111.973 30.032C111.973 28.2613 112.282 26.7573 112.901 25.52C113.519 24.2613 114.351 23.312 115.397 22.672C116.463 22.0107 117.658 21.68 118.981 21.68C120.389 21.68 121.551 22.0853 122.469 22.896C123.386 23.7067 123.983 24.752 124.261 26.032L123.845 26.544V14.992H128.229V38H124.293L124.005 33.136L124.549 33.392C124.399 34.3947 124.058 35.2693 123.525 36.016C122.991 36.7413 122.319 37.3067 121.509 37.712C120.698 38.1173 119.802 38.32 118.821 38.32ZM120.101 34.96C120.869 34.96 121.53 34.768 122.085 34.384C122.639 33.9787 123.066 33.392 123.365 32.624C123.685 31.856 123.845 30.9387 123.845 29.872C123.845 28.848 123.695 27.984 123.397 27.28C123.098 26.5547 122.671 26 122.117 25.616C121.562 25.232 120.911 25.04 120.165 25.04C118.97 25.04 118.031 25.4667 117.349 26.32C116.687 27.152 116.357 28.3787 116.357 30C116.357 31.6213 116.687 32.8587 117.349 33.712C118.01 34.544 118.927 34.96 120.101 34.96ZM135.107 15.792C135.79 15.792 136.355 15.9627 136.803 16.304C137.251 16.624 137.593 17.0613 137.827 17.616C138.062 18.1493 138.179 18.7467 138.179 19.408C138.179 20.2827 137.998 21.1253 137.635 21.936C137.294 22.7467 136.814 23.472 136.195 24.112C135.577 24.752 134.873 25.2533 134.083 25.616L132.195 24.112C132.771 23.8773 133.294 23.5893 133.763 23.248C134.254 22.9067 134.67 22.5227 135.011 22.096C135.353 21.6693 135.598 21.232 135.747 20.784L135.587 20.688C135.481 20.752 135.353 20.816 135.203 20.88C135.054 20.9227 134.841 20.944 134.563 20.944C134.222 20.944 133.881 20.8587 133.539 20.688C133.198 20.496 132.91 20.2293 132.675 19.888C132.441 19.5253 132.323 19.0773 132.323 18.544C132.323 17.968 132.451 17.4773 132.707 17.072C132.963 16.6667 133.305 16.3573 133.731 16.144C134.158 15.9093 134.617 15.792 135.107 15.792ZM146.829 38.32C145.208 38.32 143.725 38.032 142.381 37.456C141.058 36.88 139.981 36.0693 139.149 35.024L141.677 32.464C142.189 33.232 142.872 33.8613 143.725 34.352C144.578 34.8427 145.592 35.088 146.765 35.088C147.597 35.088 148.258 34.9707 148.749 34.736C149.261 34.48 149.517 34.0853 149.517 33.552C149.517 33.2107 149.4 32.9227 149.165 32.688C148.93 32.432 148.461 32.2293 147.757 32.08L144.941 31.504C143.085 31.12 141.762 30.544 140.973 29.776C140.205 28.9867 139.821 27.9733 139.821 26.736C139.821 25.8613 140.077 25.04 140.589 24.272C141.122 23.504 141.912 22.8853 142.957 22.416C144.002 21.9253 145.304 21.68 146.861 21.68C148.461 21.68 149.848 21.936 151.021 22.448C152.216 22.9387 153.154 23.6747 153.837 24.656L151.213 27.216C150.744 26.4693 150.125 25.904 149.357 25.52C148.61 25.1147 147.821 24.912 146.989 24.912C146.392 24.912 145.88 24.976 145.453 25.104C145.026 25.232 144.706 25.4133 144.493 25.648C144.28 25.8613 144.173 26.1387 144.173 26.48C144.173 26.8213 144.322 27.12 144.621 27.376C144.92 27.6107 145.464 27.8133 146.253 27.984L149.517 28.656C151.096 28.976 152.226 29.52 152.909 30.288C153.592 31.0347 153.933 31.9413 153.933 33.008C153.933 34.032 153.656 34.9493 153.101 35.76C152.568 36.5493 151.768 37.1787 150.701 37.648C149.656 38.096 148.365 38.32 146.829 38.32ZM183.706 16.88V20.432H176.634V38H172.218V20.432H165.114V16.88H183.706ZM193.018 27.792C193.018 26.8747 192.751 26.16 192.218 25.648C191.706 25.136 191.023 24.88 190.17 24.88C189.38 24.88 188.687 25.0827 188.09 25.488C187.492 25.8933 187.055 26.5653 186.778 27.504L183.034 26.352C183.396 24.944 184.186 23.8133 185.402 22.96C186.639 22.1067 188.292 21.68 190.362 21.68C191.77 21.68 192.996 21.904 194.042 22.352C195.087 22.7787 195.898 23.4293 196.474 24.304C197.071 25.1787 197.37 26.2773 197.37 27.6V34.096C197.37 34.9067 197.754 35.312 198.522 35.312C198.884 35.312 199.226 35.2587 199.546 35.152L199.29 37.872C198.735 38.1493 198.042 38.288 197.21 38.288C196.463 38.288 195.791 38.16 195.194 37.904C194.596 37.648 194.127 37.264 193.786 36.752C193.444 36.2187 193.274 35.5573 193.274 34.768V34.64L194.042 34.512C193.914 35.3227 193.562 36.016 192.986 36.592C192.41 37.1467 191.706 37.5733 190.874 37.872C190.063 38.1707 189.22 38.32 188.346 38.32C187.258 38.32 186.319 38.16 185.53 37.84C184.74 37.4987 184.132 37.008 183.706 36.368C183.279 35.728 183.066 34.9387 183.066 34C183.066 32.8053 183.45 31.8347 184.218 31.088C184.986 30.32 186.084 29.7973 187.514 29.52L193.53 28.304L193.498 31.024L189.658 31.792C188.932 31.9413 188.378 32.144 187.994 32.4C187.631 32.6347 187.45 33.0293 187.45 33.584C187.45 34.1173 187.642 34.5227 188.026 34.8C188.431 35.0773 188.911 35.216 189.466 35.216C189.914 35.216 190.351 35.1627 190.778 35.056C191.204 34.9493 191.588 34.7787 191.93 34.544C192.271 34.3093 192.538 33.9893 192.73 33.584C192.922 33.1787 193.018 32.688 193.018 32.112V27.792ZM206.593 14.992V33.072C206.593 33.8187 206.721 34.3413 206.977 34.64C207.233 34.9387 207.659 35.088 208.257 35.088C208.619 35.088 208.918 35.0667 209.153 35.024C209.387 34.96 209.686 34.8747 210.049 34.768L209.665 37.648C209.302 37.8613 208.843 38.0213 208.289 38.128C207.755 38.256 207.222 38.32 206.689 38.32C205.131 38.32 203.99 37.9467 203.265 37.2C202.561 36.432 202.209 35.216 202.209 33.552V14.992H206.593ZM228.78 22L221.388 29.712L220.524 30.128L215.724 35.28L215.66 30.608L223.788 22H228.78ZM216.876 14.992V38H212.492V14.992H216.876ZM221.996 27.088L229.164 38H224.204L218.988 29.648L221.996 27.088Z" fill="#132238"/>
<path d="M48.3555 25.4039C48.3555 38.4028 37.2437 50.4923 24.1778 50.4923C11.4389 49.7123 0 38.4028 0 25.4039C0 12.4051 11.179 1.35681 24.1778 0.056926C37.4365 -0.982966 48.3555 12.4051 48.3555 25.4039Z" fill="url(#paint0_linear_471_2332)"/>
<path d="M51.2251 25.5345C51.2251 38.476 40.212 50.5022 27.2975 50.5022C14.3864 50.5022 3.62988 38.4796 3.62988 25.5345C3.62988 12.5861 14.3895 0.306885 27.2975 0.306885C40.2089 0.306885 51.2251 12.5897 51.2251 25.5345Z" stroke="#F2A788" stroke-opacity="0.6" stroke-width="0.5"/>
<path d="M51.9939 25.5345C51.9939 38.6004 40.8821 50.7522 27.8163 50.7522C14.7504 50.7522 3.63867 38.6004 3.63867 25.5345C3.63867 12.4687 14.7504 0.0568848 27.8163 0.0568848C40.8821 0.0568848 51.9939 12.4687 51.9939 25.5345Z" fill="url(#paint1_linear_471_2332)"/>
<path d="M43.8882 37.0766C45.4077 35.3375 48.24 35.8955 48.9863 38.081L51.1577 44.4392C51.9041 46.6247 50.0047 48.7985 47.7388 48.3522L41.1468 47.0535C38.8809 46.6071 37.948 43.8753 39.4675 42.1362L43.8882 37.0766Z" fill="#F2835D"/>
<circle cx="18.2138" cy="28.1491" r="2.75973" fill="white"/>
<circle cx="38.8203" cy="23.7336" r="2.75973" fill="white"/>
<circle cx="28.5175" cy="26.3093" r="2.75973" fill="white"/>
<defs>
<linearGradient id="paint0_linear_471_2332" x1="19.4983" y1="2.12608" x2="7.65202" y2="42.249" gradientUnits="userSpaceOnUse">
<stop stop-color="#EE4F30"/>
<stop offset="0.225368" stop-color="#E6583C"/>
<stop offset="0.49654" stop-color="#F2B58D"/>
<stop offset="0.780816" stop-color="#ED6145"/>
<stop offset="1" stop-color="#EB3E23"/>
</linearGradient>
<linearGradient id="paint1_linear_471_2332" x1="10.658" y1="11.4958" x2="49.3945" y2="47.8925" gradientUnits="userSpaceOnUse">
<stop stop-color="#F04E22"/>
<stop offset="0.277131" stop-color="#F05429"/>
<stop offset="0.525704" stop-color="#F05F37"/>
<stop offset="0.739379" stop-color="#F2805A"/>
<stop offset="1" stop-color="#F28963"/>
</linearGradient>
</defs>
</svg>
