<svg width="167" height="67" viewBox="0 0 167 67" fill="none" xmlns="http://www.w3.org/2000/svg">
<path d="M73.9091 6.75635C75.1918 3.86439 78.0583 2 81.222 2H151.951C157.67 2 161.542 7.82676 159.326 13.0992L139.577 60.0992C138.329 63.0685 135.422 65 132.201 65H60.3751C54.5884 65 50.7159 59.046 53.0622 53.7563L73.9091 6.75635Z" stroke="#F04E22" stroke-width="4"/>
<line x1="78.759" y1="5.62299" x2="88.623" y2="21.241" stroke="#F04E22" stroke-width="4" stroke-linecap="round"/>
<line x1="63.0039" y1="5.5" x2="2.99654" y2="5.5" stroke="#F04E22" stroke-width="4" stroke-linecap="round"/>
<line x1="58" y1="18" x2="16" y2="18" stroke="#F04E22" stroke-width="4" stroke-linecap="round"/>
<line x1="54" y1="30" x2="27" y2="30" stroke="#F04E22" stroke-width="4" stroke-linecap="round"/>
<line x1="50" y1="43" x2="37" y2="43" stroke="#F04E22" stroke-width="4" stroke-linecap="round"/>
<line x1="56.433" y1="61.2049" x2="94.2049" y2="33.567" stroke="#F04E22" stroke-width="4" stroke-linecap="round"/>
<path d="M93 28.5L95.5 32L97 34L99 36L101 37L103 37L107.5 36.9998L112 35.4998L116 33L124 26.9998L155 4.49983" stroke="#F04E22" stroke-width="4" stroke-linecap="round"/>
<line x1="116.758" y1="33.6265" x2="134.902" y2="62.4356" stroke="#F04E22" stroke-width="4" stroke-linecap="round"/>
</svg>
