<svg width="20" height="20" viewBox="0 0 30 30" fill="none" xmlns="http://www.w3.org/2000/svg">
<g clip-path="url(#clip0_447_2267)">
<path d="M22.5632 22.2375C22.447 22.1203 22.3088 22.0273 22.1565 21.9639C22.0041 21.9004 21.8408 21.8678 21.6757 21.8678C21.5107 21.8678 21.3474 21.9004 21.195 21.9639C21.0427 22.0273 20.9045 22.1203 20.7882 22.2375L16.2507 26.775V1.25C16.2507 0.918479 16.1191 0.600537 15.8846 0.366117C15.6502 0.131696 15.3323 0 15.0007 0V0C14.6692 0 14.3513 0.131696 14.1169 0.366117C13.8824 0.600537 13.7507 0.918479 13.7507 1.25V26.7625L9.22575 22.2375C9.11861 22.091 8.98085 21.9696 8.82206 21.8817C8.66326 21.7938 8.48723 21.7416 8.30621 21.7286C8.12518 21.7156 7.9435 21.7422 7.77379 21.8066C7.60408 21.8709 7.45041 21.9714 7.32346 22.1011C7.19652 22.2308 7.09934 22.3866 7.03868 22.5576C6.97802 22.7287 6.95534 22.9109 6.97221 23.0916C6.98908 23.2723 7.0451 23.4472 7.13637 23.6041C7.22765 23.7609 7.35198 23.896 7.50075 24L12.4007 28.9C13.1039 29.6023 14.057 29.9967 15.0507 29.9967C16.0445 29.9967 16.9976 29.6023 17.7007 28.9L22.6007 24C22.8286 23.7609 22.9526 23.4413 22.9456 23.111C22.9386 22.7808 22.8011 22.4667 22.5632 22.2375Z" fill="#1A1A1A"/>
</g>
<defs>
<clipPath id="clip0_447_2267">
<rect width="30" height="30" fill="white"/>
</clipPath>
</defs>
</svg>
