<svg width="20" height="20" viewBox="0 0 30 30" fill="none" xmlns="http://www.w3.org/2000/svg">
<g clip-path="url(#clip0_447_2280)">
<path d="M7.43675 7.7625C7.55296 7.87966 7.69121 7.97265 7.84353 8.03611C7.99585 8.09957 8.15924 8.13225 8.32425 8.13225C8.48927 8.13225 8.65265 8.09957 8.80497 8.03611C8.9573 7.97265 9.09555 7.87966 9.21175 7.7625L13.7493 3.225L13.7493 28.75C13.7493 29.0815 13.8809 29.3995 14.1154 29.6339C14.3498 29.8683 14.6677 30 14.9993 30V30C15.3308 30 15.6487 29.8683 15.8831 29.6339C16.1176 29.3995 16.2493 29.0815 16.2493 28.75L16.2493 3.2375L20.7743 7.7625C20.8814 7.90899 21.0191 8.0304 21.1779 8.11827C21.3367 8.20615 21.5128 8.2584 21.6938 8.27138C21.8748 8.28436 22.0565 8.25777 22.2262 8.19345C22.3959 8.12912 22.5496 8.02862 22.6765 7.89891C22.8035 7.76921 22.9007 7.61341 22.9613 7.44236C23.022 7.2713 23.0447 7.08909 23.0278 6.90839C23.0109 6.72768 22.9549 6.55282 22.8636 6.39595C22.7724 6.23908 22.648 6.10396 22.4993 6L17.5993 1.1C16.8961 0.397743 15.943 0.00329781 14.9493 0.00329781C13.9555 0.00329781 13.0024 0.397743 12.2993 1.1L7.39925 6C7.17135 6.23912 7.04737 6.55873 7.05439 6.88898C7.06142 7.21924 7.19889 7.53329 7.43675 7.7625Z" fill="#1A1A1A"/>
</g>
<defs>
<clipPath id="clip0_447_2280">
<rect width="30" height="30" fill="white" transform="matrix(-1 0 0 -1 30 30)"/>
</clipPath>
</defs>
</svg>
